<?xml version="1.0" standalone="no"?>
<!DOCTYPE svg PUBLIC "-//W3C//DTD SVG 20010904//EN"
 "http://www.w3.org/TR/2001/REC-SVG-20010904/DTD/svg10.dtd">
<svg version="1.0" xmlns="http://www.w3.org/2000/svg"
 width="351.000000pt" height="351.000000pt" viewBox="0 0 351.000000 351.000000"
 preserveAspectRatio="xMidYMid meet">
<metadata>
Created by potrace 1.14, written by Peter Selinger 2001-2017
</metadata>
<g transform="translate(0.000000,351.000000) scale(0.100000,-0.100000)"
fill="#000000" stroke="none">
<path d="M1555 3434 c-291 -51 -558 -223 -737 -474 -212 -299 -265 -679 -142
-1020 43 -122 80 -188 567 -1021 523 -895 490 -839 499 -839 8 0 233 361 550
880 546 895 546 894 595 1055 25 85 27 101 27 280 0 174 -2 198 -26 287 -118
435 -489 777 -926 853 -104 18 -300 18 -407 -1z m281 -665 c117 -22 228 -96
292 -196 121 -191 58 -459 -136 -581 -79 -50 -142 -65 -247 -60 -83 3 -101 8
-168 41 -253 125 -314 453 -123 664 57 63 138 110 217 128 81 17 92 17 165 4z"/>
</g>
</svg>
